<svg version="1.1" baseProfile="full" width="882" height="300" xmlns="http://www.w3.org/2000/svg">
<text x="0" y="16" fill="black" font-family="Helvetica, Consolas, Arial, Sans" font-size="16">Source clips</text><text x="445" y="16" fill="black" font-family="Helvetica, Consolas, Arial, Sans" font-size="16">Result</text><rect style="fill:#cbcbd3;stroke-width:0" x="30" y="20" width="407" height="136" />
<rect style="fill:#ffffff;stroke:#8e8e8e;stroke-width:1;stroke-miterlimit:4" x="0" y="148" width="30" height="8" />
<line x1="30" x2="437" y1="148" y2="148" stroke-width="1" stroke="#bbbbbb" />
<rect style="fill:#000000;stroke:#8e8e8e;stroke-width:1;stroke-miterlimit:4" x="0" y="139" width="30" height="8" />
<rect style="fill:#b3b3b9;stroke-width:0;" x="30" y="139" width="407" height="8" />
<line x1="30" x2="437" y1="139" y2="139" stroke-width="1" stroke="#bbbbbb" />
<rect style="fill:#ffffff;stroke:#8e8e8e;stroke-width:1;stroke-miterlimit:4" x="0" y="130" width="30" height="8" />
<line x1="30" x2="437" y1="130" y2="130" stroke-width="1" stroke="#bbbbbb" />
<rect style="fill:#ffffff;stroke:#8e8e8e;stroke-width:1;stroke-miterlimit:4" x="0" y="122" width="30" height="8" />
<line x1="30" x2="437" y1="122" y2="122" stroke-width="1" stroke="#bbbbbb" />
<rect style="fill:#000000;stroke:#8e8e8e;stroke-width:1;stroke-miterlimit:4" x="0" y="114" width="30" height="8" />
<rect style="fill:#b3b3b9;stroke-width:0;" x="30" y="114" width="407" height="8" />
<line x1="30" x2="437" y1="114" y2="114" stroke-width="1" stroke="#bbbbbb" />
<rect style="fill:#ffffff;stroke:#8e8e8e;stroke-width:1;stroke-miterlimit:4" x="0" y="105" width="30" height="8" />
<line x1="30" x2="437" y1="105" y2="105" stroke-width="1" stroke="#bbbbbb" />
<rect style="fill:#000000;stroke:#8e8e8e;stroke-width:1;stroke-miterlimit:4" x="0" y="96" width="30" height="8" />
<rect style="fill:#b3b3b9;stroke-width:0;" x="30" y="96" width="407" height="8" />
<line x1="30" x2="437" y1="96" y2="96" stroke-width="1" stroke="#bbbbbb" />
<rect style="fill:#ffffff;stroke:#8e8e8e;stroke-width:1;stroke-miterlimit:4" x="0" y="88" width="30" height="8" />
<line x1="30" x2="437" y1="88" y2="88" stroke-width="1" stroke="#bbbbbb" />
<rect style="fill:#000000;stroke:#8e8e8e;stroke-width:1;stroke-miterlimit:4" x="0" y="80" width="30" height="8" />
<rect style="fill:#b3b3b9;stroke-width:0;" x="30" y="80" width="407" height="8" />
<line x1="30" x2="437" y1="80" y2="80" stroke-width="1" stroke="#bbbbbb" />
<rect style="fill:#ffffff;stroke:#8e8e8e;stroke-width:1;stroke-miterlimit:4" x="0" y="71" width="30" height="8" />
<line x1="30" x2="437" y1="71" y2="71" stroke-width="1" stroke="#bbbbbb" />
<rect style="fill:#ffffff;stroke:#8e8e8e;stroke-width:1;stroke-miterlimit:4" x="0" y="62" width="30" height="8" />
<line x1="30" x2="437" y1="62" y2="62" stroke-width="1" stroke="#bbbbbb" />
<rect style="fill:#000000;stroke:#8e8e8e;stroke-width:1;stroke-miterlimit:4" x="0" y="54" width="30" height="8" />
<rect style="fill:#b3b3b9;stroke-width:0;" x="30" y="54" width="407" height="8" />
<line x1="30" x2="437" y1="54" y2="54" stroke-width="1" stroke="#bbbbbb" />
<rect style="fill:#ffffff;stroke:#8e8e8e;stroke-width:1;stroke-miterlimit:4" x="0" y="46" width="30" height="8" />
<line x1="30" x2="437" y1="46" y2="46" stroke-width="1" stroke="#bbbbbb" />
<rect style="fill:#000000;stroke:#8e8e8e;stroke-width:1;stroke-miterlimit:4" x="0" y="37" width="30" height="8" />
<rect style="fill:#b3b3b9;stroke-width:0;" x="30" y="37" width="407" height="8" />
<line x1="30" x2="437" y1="37" y2="37" stroke-width="1" stroke="#bbbbbb" />
<rect style="fill:#ffffff;stroke:#8e8e8e;stroke-width:1;stroke-miterlimit:4" x="0" y="28" width="30" height="8" />
<line x1="30" x2="437" y1="28" y2="28" stroke-width="1" stroke="#bbbbbb" />
<rect style="fill:#ffffff;stroke:#8e8e8e;stroke-width:1;stroke-miterlimit:4" x="0" y="20" width="30" height="8" />
<line x1="30" x2="437" y1="20" y2="20" stroke-width="1" stroke="#bbbbbb" />
<line x1="30" x2="30" y1="20" y2="156" stroke-width="1" stroke="#e6e6e6" />
<line x1="55" x2="55" y1="20" y2="156" stroke-width="1" stroke="#e6e6e6" />
<line x1="81" x2="81" y1="20" y2="156" stroke-width="1" stroke="#e6e6e6" />
<line x1="106" x2="106" y1="20" y2="156" stroke-width="1" stroke="#e6e6e6" />
<line x1="132" x2="132" y1="20" y2="156" stroke-width="1" stroke="#e6e6e6" />
<line x1="157" x2="157" y1="20" y2="156" stroke-width="1" stroke="#e6e6e6" />
<line x1="183" x2="183" y1="20" y2="156" stroke-width="1" stroke="#e6e6e6" />
<line x1="208" x2="208" y1="20" y2="156" stroke-width="1" stroke="#e6e6e6" />
<line x1="234" x2="234" y1="20" y2="156" stroke-width="1" stroke="#e6e6e6" />
<line x1="259" x2="259" y1="20" y2="156" stroke-width="1" stroke="#e6e6e6" />
<line x1="284" x2="284" y1="20" y2="156" stroke-width="1" stroke="#e6e6e6" />
<line x1="310" x2="310" y1="20" y2="156" stroke-width="1" stroke="#e6e6e6" />
<line x1="335" x2="335" y1="20" y2="156" stroke-width="1" stroke="#e6e6e6" />
<line x1="361" x2="361" y1="20" y2="156" stroke-width="1" stroke="#e6e6e6" />
<line x1="386" x2="386" y1="20" y2="156" stroke-width="1" stroke="#e6e6e6" />
<line x1="412" x2="412" y1="20" y2="156" stroke-width="1" stroke="#e6e6e6" />
<rect style="fill:#55d400;stroke:#233450;stroke-width:0.5;stroke-miterlimit:4" x="30" y="62" width="407" height="8" />
<text x="401" y="148" fill="black" font-family="Helvetica, Consolas, Arial, Sans" font-size="16">B1</text><rect style="fill:#cbcbd3;stroke-width:0" x="30" y="164" width="407" height="136" />
<rect style="fill:#ffffff;stroke:#8e8e8e;stroke-width:1;stroke-miterlimit:4" x="0" y="292" width="30" height="8" />
<line x1="30" x2="437" y1="292" y2="292" stroke-width="1" stroke="#bbbbbb" />
<rect style="fill:#000000;stroke:#8e8e8e;stroke-width:1;stroke-miterlimit:4" x="0" y="283" width="30" height="8" />
<rect style="fill:#b3b3b9;stroke-width:0;" x="30" y="283" width="407" height="8" />
<line x1="30" x2="437" y1="283" y2="283" stroke-width="1" stroke="#bbbbbb" />
<rect style="fill:#ffffff;stroke:#8e8e8e;stroke-width:1;stroke-miterlimit:4" x="0" y="274" width="30" height="8" />
<line x1="30" x2="437" y1="274" y2="274" stroke-width="1" stroke="#bbbbbb" />
<rect style="fill:#ffffff;stroke:#8e8e8e;stroke-width:1;stroke-miterlimit:4" x="0" y="266" width="30" height="8" />
<line x1="30" x2="437" y1="266" y2="266" stroke-width="1" stroke="#bbbbbb" />
<rect style="fill:#000000;stroke:#8e8e8e;stroke-width:1;stroke-miterlimit:4" x="0" y="258" width="30" height="8" />
<rect style="fill:#b3b3b9;stroke-width:0;" x="30" y="258" width="407" height="8" />
<line x1="30" x2="437" y1="258" y2="258" stroke-width="1" stroke="#bbbbbb" />
<rect style="fill:#ffffff;stroke:#8e8e8e;stroke-width:1;stroke-miterlimit:4" x="0" y="249" width="30" height="8" />
<line x1="30" x2="437" y1="249" y2="249" stroke-width="1" stroke="#bbbbbb" />
<rect style="fill:#000000;stroke:#8e8e8e;stroke-width:1;stroke-miterlimit:4" x="0" y="240" width="30" height="8" />
<rect style="fill:#b3b3b9;stroke-width:0;" x="30" y="240" width="407" height="8" />
<line x1="30" x2="437" y1="240" y2="240" stroke-width="1" stroke="#bbbbbb" />
<rect style="fill:#ffffff;stroke:#8e8e8e;stroke-width:1;stroke-miterlimit:4" x="0" y="232" width="30" height="8" />
<line x1="30" x2="437" y1="232" y2="232" stroke-width="1" stroke="#bbbbbb" />
<rect style="fill:#000000;stroke:#8e8e8e;stroke-width:1;stroke-miterlimit:4" x="0" y="224" width="30" height="8" />
<rect style="fill:#b3b3b9;stroke-width:0;" x="30" y="224" width="407" height="8" />
<line x1="30" x2="437" y1="224" y2="224" stroke-width="1" stroke="#bbbbbb" />
<rect style="fill:#ffffff;stroke:#8e8e8e;stroke-width:1;stroke-miterlimit:4" x="0" y="215" width="30" height="8" />
<line x1="30" x2="437" y1="215" y2="215" stroke-width="1" stroke="#bbbbbb" />
<rect style="fill:#ffffff;stroke:#8e8e8e;stroke-width:1;stroke-miterlimit:4" x="0" y="206" width="30" height="8" />
<line x1="30" x2="437" y1="206" y2="206" stroke-width="1" stroke="#bbbbbb" />
<rect style="fill:#000000;stroke:#8e8e8e;stroke-width:1;stroke-miterlimit:4" x="0" y="198" width="30" height="8" />
<rect style="fill:#b3b3b9;stroke-width:0;" x="30" y="198" width="407" height="8" />
<line x1="30" x2="437" y1="198" y2="198" stroke-width="1" stroke="#bbbbbb" />
<rect style="fill:#ffffff;stroke:#8e8e8e;stroke-width:1;stroke-miterlimit:4" x="0" y="190" width="30" height="8" />
<line x1="30" x2="437" y1="190" y2="190" stroke-width="1" stroke="#bbbbbb" />
<rect style="fill:#000000;stroke:#8e8e8e;stroke-width:1;stroke-miterlimit:4" x="0" y="181" width="30" height="8" />
<rect style="fill:#b3b3b9;stroke-width:0;" x="30" y="181" width="407" height="8" />
<line x1="30" x2="437" y1="181" y2="181" stroke-width="1" stroke="#bbbbbb" />
<rect style="fill:#ffffff;stroke:#8e8e8e;stroke-width:1;stroke-miterlimit:4" x="0" y="172" width="30" height="8" />
<line x1="30" x2="437" y1="172" y2="172" stroke-width="1" stroke="#bbbbbb" />
<rect style="fill:#ffffff;stroke:#8e8e8e;stroke-width:1;stroke-miterlimit:4" x="0" y="164" width="30" height="8" />
<line x1="30" x2="437" y1="164" y2="164" stroke-width="1" stroke="#bbbbbb" />
<line x1="30" x2="30" y1="164" y2="300" stroke-width="1" stroke="#e6e6e6" />
<line x1="55" x2="55" y1="164" y2="300" stroke-width="1" stroke="#e6e6e6" />
<line x1="81" x2="81" y1="164" y2="300" stroke-width="1" stroke="#e6e6e6" />
<line x1="106" x2="106" y1="164" y2="300" stroke-width="1" stroke="#e6e6e6" />
<line x1="132" x2="132" y1="164" y2="300" stroke-width="1" stroke="#e6e6e6" />
<line x1="157" x2="157" y1="164" y2="300" stroke-width="1" stroke="#e6e6e6" />
<line x1="183" x2="183" y1="164" y2="300" stroke-width="1" stroke="#e6e6e6" />
<line x1="208" x2="208" y1="164" y2="300" stroke-width="1" stroke="#e6e6e6" />
<line x1="234" x2="234" y1="164" y2="300" stroke-width="1" stroke="#e6e6e6" />
<line x1="259" x2="259" y1="164" y2="300" stroke-width="1" stroke="#e6e6e6" />
<line x1="284" x2="284" y1="164" y2="300" stroke-width="1" stroke="#e6e6e6" />
<line x1="310" x2="310" y1="164" y2="300" stroke-width="1" stroke="#e6e6e6" />
<line x1="335" x2="335" y1="164" y2="300" stroke-width="1" stroke="#e6e6e6" />
<line x1="361" x2="361" y1="164" y2="300" stroke-width="1" stroke="#e6e6e6" />
<line x1="386" x2="386" y1="164" y2="300" stroke-width="1" stroke="#e6e6e6" />
<line x1="412" x2="412" y1="164" y2="300" stroke-width="1" stroke="#e6e6e6" />
<rect style="fill:#55d400;stroke:#233450;stroke-width:0.5;stroke-miterlimit:4" x="30" y="266" width="407" height="8" />
<rect style="fill:#55d400;stroke:#233450;stroke-width:0.5;stroke-miterlimit:4" x="30" y="224" width="407" height="8" />
<rect style="fill:#55d400;stroke:#233450;stroke-width:0.5;stroke-miterlimit:4" x="30" y="198" width="407" height="8" />
<text x="401" y="292" fill="black" font-family="Helvetica, Consolas, Arial, Sans" font-size="16">C1</text><rect style="fill:#cbcbd3;stroke-width:0" x="475" y="20" width="407" height="280" />
<rect style="fill:#ffffff;stroke:#8e8e8e;stroke-width:1;stroke-miterlimit:4" x="445" y="288" width="30" height="12" />
<line x1="475" x2="882" y1="288" y2="288" stroke-width="1" stroke="#bbbbbb" />
<rect style="fill:#000000;stroke:#8e8e8e;stroke-width:1;stroke-miterlimit:4" x="445" y="276" width="30" height="12" />
<rect style="fill:#b3b3b9;stroke-width:0;" x="475" y="276" width="407" height="12" />
<line x1="475" x2="882" y1="276" y2="276" stroke-width="1" stroke="#bbbbbb" />
<rect style="fill:#ffffff;stroke:#8e8e8e;stroke-width:1;stroke-miterlimit:4" x="445" y="263" width="30" height="12" />
<line x1="475" x2="882" y1="263" y2="263" stroke-width="1" stroke="#bbbbbb" />
<rect style="fill:#ffffff;stroke:#8e8e8e;stroke-width:1;stroke-miterlimit:4" x="445" y="251" width="30" height="12" />
<line x1="475" x2="882" y1="251" y2="251" stroke-width="1" stroke="#bbbbbb" />
<rect style="fill:#000000;stroke:#8e8e8e;stroke-width:1;stroke-miterlimit:4" x="445" y="239" width="30" height="12" />
<rect style="fill:#b3b3b9;stroke-width:0;" x="475" y="239" width="407" height="12" />
<line x1="475" x2="882" y1="239" y2="239" stroke-width="1" stroke="#bbbbbb" />
<rect style="fill:#ffffff;stroke:#8e8e8e;stroke-width:1;stroke-miterlimit:4" x="445" y="227" width="30" height="12" />
<line x1="475" x2="882" y1="227" y2="227" stroke-width="1" stroke="#bbbbbb" />
<rect style="fill:#000000;stroke:#8e8e8e;stroke-width:1;stroke-miterlimit:4" x="445" y="215" width="30" height="12" />
<rect style="fill:#b3b3b9;stroke-width:0;" x="475" y="215" width="407" height="12" />
<line x1="475" x2="882" y1="215" y2="215" stroke-width="1" stroke="#bbbbbb" />
<rect style="fill:#ffffff;stroke:#8e8e8e;stroke-width:1;stroke-miterlimit:4" x="445" y="203" width="30" height="12" />
<line x1="475" x2="882" y1="203" y2="203" stroke-width="1" stroke="#bbbbbb" />
<rect style="fill:#000000;stroke:#8e8e8e;stroke-width:1;stroke-miterlimit:4" x="445" y="190" width="30" height="12" />
<rect style="fill:#b3b3b9;stroke-width:0;" x="475" y="190" width="407" height="12" />
<line x1="475" x2="882" y1="190" y2="190" stroke-width="1" stroke="#bbbbbb" />
<rect style="fill:#ffffff;stroke:#8e8e8e;stroke-width:1;stroke-miterlimit:4" x="445" y="178" width="30" height="12" />
<line x1="475" x2="882" y1="178" y2="178" stroke-width="1" stroke="#bbbbbb" />
<rect style="fill:#ffffff;stroke:#8e8e8e;stroke-width:1;stroke-miterlimit:4" x="445" y="166" width="30" height="12" />
<line x1="475" x2="882" y1="166" y2="166" stroke-width="1" stroke="#bbbbbb" />
<rect style="fill:#000000;stroke:#8e8e8e;stroke-width:1;stroke-miterlimit:4" x="445" y="154" width="30" height="12" />
<rect style="fill:#b3b3b9;stroke-width:0;" x="475" y="154" width="407" height="12" />
<line x1="475" x2="882" y1="154" y2="154" stroke-width="1" stroke="#bbbbbb" />
<rect style="fill:#ffffff;stroke:#8e8e8e;stroke-width:1;stroke-miterlimit:4" x="445" y="142" width="30" height="12" />
<line x1="475" x2="882" y1="142" y2="142" stroke-width="1" stroke="#bbbbbb" />
<rect style="fill:#000000;stroke:#8e8e8e;stroke-width:1;stroke-miterlimit:4" x="445" y="130" width="30" height="12" />
<rect style="fill:#b3b3b9;stroke-width:0;" x="475" y="130" width="407" height="12" />
<line x1="475" x2="882" y1="130" y2="130" stroke-width="1" stroke="#bbbbbb" />
<rect style="fill:#ffffff;stroke:#8e8e8e;stroke-width:1;stroke-miterlimit:4" x="445" y="117" width="30" height="12" />
<line x1="475" x2="882" y1="117" y2="117" stroke-width="1" stroke="#bbbbbb" />
<rect style="fill:#ffffff;stroke:#8e8e8e;stroke-width:1;stroke-miterlimit:4" x="445" y="105" width="30" height="12" />
<line x1="475" x2="882" y1="105" y2="105" stroke-width="1" stroke="#bbbbbb" />
<rect style="fill:#000000;stroke:#8e8e8e;stroke-width:1;stroke-miterlimit:4" x="445" y="93" width="30" height="12" />
<rect style="fill:#b3b3b9;stroke-width:0;" x="475" y="93" width="407" height="12" />
<line x1="475" x2="882" y1="93" y2="93" stroke-width="1" stroke="#bbbbbb" />
<rect style="fill:#ffffff;stroke:#8e8e8e;stroke-width:1;stroke-miterlimit:4" x="445" y="81" width="30" height="12" />
<line x1="475" x2="882" y1="81" y2="81" stroke-width="1" stroke="#bbbbbb" />
<rect style="fill:#000000;stroke:#8e8e8e;stroke-width:1;stroke-miterlimit:4" x="445" y="69" width="30" height="12" />
<rect style="fill:#b3b3b9;stroke-width:0;" x="475" y="69" width="407" height="12" />
<line x1="475" x2="882" y1="69" y2="69" stroke-width="1" stroke="#bbbbbb" />
<rect style="fill:#ffffff;stroke:#8e8e8e;stroke-width:1;stroke-miterlimit:4" x="445" y="57" width="30" height="12" />
<line x1="475" x2="882" y1="57" y2="57" stroke-width="1" stroke="#bbbbbb" />
<rect style="fill:#000000;stroke:#8e8e8e;stroke-width:1;stroke-miterlimit:4" x="445" y="44" width="30" height="12" />
<rect style="fill:#b3b3b9;stroke-width:0;" x="475" y="44" width="407" height="12" />
<line x1="475" x2="882" y1="44" y2="44" stroke-width="1" stroke="#bbbbbb" />
<rect style="fill:#ffffff;stroke:#8e8e8e;stroke-width:1;stroke-miterlimit:4" x="445" y="32" width="30" height="12" />
<line x1="475" x2="882" y1="32" y2="32" stroke-width="1" stroke="#bbbbbb" />
<rect style="fill:#ffffff;stroke:#8e8e8e;stroke-width:1;stroke-miterlimit:4" x="445" y="20" width="30" height="12" />
<line x1="475" x2="882" y1="20" y2="20" stroke-width="1" stroke="#bbbbbb" />
<line x1="475" x2="475" y1="20" y2="300" stroke-width="1" stroke="#e6e6e6" />
<line x1="500" x2="500" y1="20" y2="300" stroke-width="1" stroke="#e6e6e6" />
<line x1="526" x2="526" y1="20" y2="300" stroke-width="1" stroke="#e6e6e6" />
<line x1="551" x2="551" y1="20" y2="300" stroke-width="1" stroke="#e6e6e6" />
<line x1="577" x2="577" y1="20" y2="300" stroke-width="1" stroke="#e6e6e6" />
<line x1="602" x2="602" y1="20" y2="300" stroke-width="1" stroke="#e6e6e6" />
<line x1="628" x2="628" y1="20" y2="300" stroke-width="1" stroke="#e6e6e6" />
<line x1="653" x2="653" y1="20" y2="300" stroke-width="1" stroke="#e6e6e6" />
<line x1="678" x2="678" y1="20" y2="300" stroke-width="1" stroke="#e6e6e6" />
<line x1="704" x2="704" y1="20" y2="300" stroke-width="1" stroke="#e6e6e6" />
<line x1="729" x2="729" y1="20" y2="300" stroke-width="1" stroke="#e6e6e6" />
<line x1="755" x2="755" y1="20" y2="300" stroke-width="1" stroke="#e6e6e6" />
<line x1="780" x2="780" y1="20" y2="300" stroke-width="1" stroke="#e6e6e6" />
<line x1="806" x2="806" y1="20" y2="300" stroke-width="1" stroke="#e6e6e6" />
<line x1="831" x2="831" y1="20" y2="300" stroke-width="1" stroke="#e6e6e6" />
<line x1="857" x2="857" y1="20" y2="300" stroke-width="1" stroke="#e6e6e6" />
<rect style="fill:#55d400;stroke:#233450;stroke-width:0.5;stroke-miterlimit:4" x="475" y="251" width="25" height="12" />
<rect style="fill:#55d400;stroke:#233450;stroke-width:0.5;stroke-miterlimit:4" x="500" y="190" width="51" height="12" />
<rect style="fill:#55d400;stroke:#233450;stroke-width:0.5;stroke-miterlimit:4" x="551" y="154" width="25" height="12" />
<rect style="fill:#55d400;stroke:#233450;stroke-width:0.5;stroke-miterlimit:4" x="577" y="251" width="51" height="12" />
<rect style="fill:#55d400;stroke:#233450;stroke-width:0.5;stroke-miterlimit:4" x="628" y="190" width="25" height="12" />
<rect style="fill:#55d400;stroke:#233450;stroke-width:0.5;stroke-miterlimit:4" x="653" y="154" width="25" height="12" />
<rect style="fill:#55d400;stroke:#233450;stroke-width:0.5;stroke-miterlimit:4" x="678" y="166" width="25" height="12" />
<rect style="fill:#55d400;stroke:#233450;stroke-width:0.5;stroke-miterlimit:4" x="704" y="105" width="25" height="12" />
<rect style="fill:#55d400;stroke:#233450;stroke-width:0.5;stroke-miterlimit:4" x="729" y="69" width="51" height="12" />
<rect style="fill:#55d400;stroke:#233450;stroke-width:0.5;stroke-miterlimit:4" x="780" y="166" width="25" height="12" />
<rect style="fill:#55d400;stroke:#233450;stroke-width:0.5;stroke-miterlimit:4" x="806" y="105" width="51" height="12" />
<rect style="fill:#55d400;stroke:#233450;stroke-width:0.5;stroke-miterlimit:4" x="857" y="69" width="25" height="12" />
</svg>