<svg version="1.1" baseProfile="full" width="882" height="300" xmlns="http://www.w3.org/2000/svg">
<text x="0" y="16" fill="black" font-family="Helvetica, Consolas, Arial, Sans" font-size="16">Source clips</text><text x="445" y="16" fill="black" font-family="Helvetica, Consolas, Arial, Sans" font-size="16">Result</text><rect style="fill:#cbcbd3;stroke-width:0" x="30" y="20" width="407" height="136" />
<rect style="fill:#ffffff;stroke:#8e8e8e;stroke-width:1;stroke-miterlimit:4" x="0" y="147" width="30" height="9" />
<line x1="30" x2="437" y1="147" y2="147" stroke-width="1" stroke="#bbbbbb" />
<rect style="fill:#000000;stroke:#8e8e8e;stroke-width:1;stroke-miterlimit:4" x="0" y="138" width="30" height="9" />
<rect style="fill:#b3b3b9;stroke-width:0;" x="30" y="138" width="407" height="9" />
<line x1="30" x2="437" y1="138" y2="138" stroke-width="1" stroke="#bbbbbb" />
<rect style="fill:#ffffff;stroke:#8e8e8e;stroke-width:1;stroke-miterlimit:4" x="0" y="129" width="30" height="9" />
<line x1="30" x2="437" y1="129" y2="129" stroke-width="1" stroke="#bbbbbb" />
<rect style="fill:#ffffff;stroke:#8e8e8e;stroke-width:1;stroke-miterlimit:4" x="0" y="120" width="30" height="9" />
<line x1="30" x2="437" y1="120" y2="120" stroke-width="1" stroke="#bbbbbb" />
<rect style="fill:#000000;stroke:#8e8e8e;stroke-width:1;stroke-miterlimit:4" x="0" y="111" width="30" height="9" />
<rect style="fill:#b3b3b9;stroke-width:0;" x="30" y="111" width="407" height="9" />
<line x1="30" x2="437" y1="111" y2="111" stroke-width="1" stroke="#bbbbbb" />
<rect style="fill:#ffffff;stroke:#8e8e8e;stroke-width:1;stroke-miterlimit:4" x="0" y="102" width="30" height="9" />
<line x1="30" x2="437" y1="102" y2="102" stroke-width="1" stroke="#bbbbbb" />
<rect style="fill:#000000;stroke:#8e8e8e;stroke-width:1;stroke-miterlimit:4" x="0" y="93" width="30" height="9" />
<rect style="fill:#b3b3b9;stroke-width:0;" x="30" y="93" width="407" height="9" />
<line x1="30" x2="437" y1="93" y2="93" stroke-width="1" stroke="#bbbbbb" />
<rect style="fill:#ffffff;stroke:#8e8e8e;stroke-width:1;stroke-miterlimit:4" x="0" y="83" width="30" height="9" />
<line x1="30" x2="437" y1="83" y2="83" stroke-width="1" stroke="#bbbbbb" />
<rect style="fill:#ffffff;stroke:#8e8e8e;stroke-width:1;stroke-miterlimit:4" x="0" y="74" width="30" height="9" />
<line x1="30" x2="437" y1="74" y2="74" stroke-width="1" stroke="#bbbbbb" />
<rect style="fill:#000000;stroke:#8e8e8e;stroke-width:1;stroke-miterlimit:4" x="0" y="65" width="30" height="9" />
<rect style="fill:#b3b3b9;stroke-width:0;" x="30" y="65" width="407" height="9" />
<line x1="30" x2="437" y1="65" y2="65" stroke-width="1" stroke="#bbbbbb" />
<rect style="fill:#ffffff;stroke:#8e8e8e;stroke-width:1;stroke-miterlimit:4" x="0" y="56" width="30" height="9" />
<line x1="30" x2="437" y1="56" y2="56" stroke-width="1" stroke="#bbbbbb" />
<rect style="fill:#000000;stroke:#8e8e8e;stroke-width:1;stroke-miterlimit:4" x="0" y="47" width="30" height="9" />
<rect style="fill:#b3b3b9;stroke-width:0;" x="30" y="47" width="407" height="9" />
<line x1="30" x2="437" y1="47" y2="47" stroke-width="1" stroke="#bbbbbb" />
<rect style="fill:#ffffff;stroke:#8e8e8e;stroke-width:1;stroke-miterlimit:4" x="0" y="38" width="30" height="9" />
<line x1="30" x2="437" y1="38" y2="38" stroke-width="1" stroke="#bbbbbb" />
<rect style="fill:#000000;stroke:#8e8e8e;stroke-width:1;stroke-miterlimit:4" x="0" y="29" width="30" height="9" />
<rect style="fill:#b3b3b9;stroke-width:0;" x="30" y="29" width="407" height="9" />
<line x1="30" x2="437" y1="29" y2="29" stroke-width="1" stroke="#bbbbbb" />
<rect style="fill:#ffffff;stroke:#8e8e8e;stroke-width:1;stroke-miterlimit:4" x="0" y="20" width="30" height="9" />
<line x1="30" x2="437" y1="20" y2="20" stroke-width="1" stroke="#bbbbbb" />
<line x1="30" x2="30" y1="20" y2="156" stroke-width="1" stroke="#e6e6e6" />
<line x1="81" x2="81" y1="20" y2="156" stroke-width="1" stroke="#e6e6e6" />
<line x1="132" x2="132" y1="20" y2="156" stroke-width="1" stroke="#e6e6e6" />
<line x1="183" x2="183" y1="20" y2="156" stroke-width="1" stroke="#e6e6e6" />
<line x1="234" x2="234" y1="20" y2="156" stroke-width="1" stroke="#e6e6e6" />
<line x1="284" x2="284" y1="20" y2="156" stroke-width="1" stroke="#e6e6e6" />
<line x1="335" x2="335" y1="20" y2="156" stroke-width="1" stroke="#e6e6e6" />
<line x1="386" x2="386" y1="20" y2="156" stroke-width="1" stroke="#e6e6e6" />
<rect style="fill:#55d400;stroke:#233450;stroke-width:0.5;stroke-miterlimit:4" x="30" y="120" width="51" height="9" />
<rect style="fill:#55d400;stroke:#233450;stroke-width:0.5;stroke-miterlimit:4" x="81" y="111" width="51" height="9" />
<rect style="fill:#55d400;stroke:#233450;stroke-width:0.5;stroke-miterlimit:4" x="132" y="102" width="51" height="9" />
<rect style="fill:#55d400;stroke:#233450;stroke-width:0.5;stroke-miterlimit:4" x="183" y="93" width="51" height="9" />
<rect style="fill:#55d400;stroke:#233450;stroke-width:0.5;stroke-miterlimit:4" x="234" y="83" width="51" height="9" />
<rect style="fill:#55d400;stroke:#233450;stroke-width:0.5;stroke-miterlimit:4" x="284" y="74" width="51" height="9" />
<rect style="fill:#55d400;stroke:#233450;stroke-width:0.5;stroke-miterlimit:4" x="335" y="65" width="51" height="9" />
<rect style="fill:#55d400;stroke:#233450;stroke-width:0.5;stroke-miterlimit:4" x="386" y="56" width="51" height="9" />
<text x="401" y="148" fill="black" font-family="Helvetica, Consolas, Arial, Sans" font-size="16">B1</text><rect style="fill:#cbcbd3;stroke-width:0" x="30" y="164" width="407" height="136" />
<rect style="fill:#ffffff;stroke:#8e8e8e;stroke-width:1;stroke-miterlimit:4" x="0" y="291" width="30" height="9" />
<line x1="30" x2="437" y1="291" y2="291" stroke-width="1" stroke="#bbbbbb" />
<rect style="fill:#000000;stroke:#8e8e8e;stroke-width:1;stroke-miterlimit:4" x="0" y="282" width="30" height="9" />
<rect style="fill:#b3b3b9;stroke-width:0;" x="30" y="282" width="407" height="9" />
<line x1="30" x2="437" y1="282" y2="282" stroke-width="1" stroke="#bbbbbb" />
<rect style="fill:#ffffff;stroke:#8e8e8e;stroke-width:1;stroke-miterlimit:4" x="0" y="273" width="30" height="9" />
<line x1="30" x2="437" y1="273" y2="273" stroke-width="1" stroke="#bbbbbb" />
<rect style="fill:#ffffff;stroke:#8e8e8e;stroke-width:1;stroke-miterlimit:4" x="0" y="264" width="30" height="9" />
<line x1="30" x2="437" y1="264" y2="264" stroke-width="1" stroke="#bbbbbb" />
<rect style="fill:#000000;stroke:#8e8e8e;stroke-width:1;stroke-miterlimit:4" x="0" y="255" width="30" height="9" />
<rect style="fill:#b3b3b9;stroke-width:0;" x="30" y="255" width="407" height="9" />
<line x1="30" x2="437" y1="255" y2="255" stroke-width="1" stroke="#bbbbbb" />
<rect style="fill:#ffffff;stroke:#8e8e8e;stroke-width:1;stroke-miterlimit:4" x="0" y="246" width="30" height="9" />
<line x1="30" x2="437" y1="246" y2="246" stroke-width="1" stroke="#bbbbbb" />
<rect style="fill:#000000;stroke:#8e8e8e;stroke-width:1;stroke-miterlimit:4" x="0" y="237" width="30" height="9" />
<rect style="fill:#b3b3b9;stroke-width:0;" x="30" y="237" width="407" height="9" />
<line x1="30" x2="437" y1="237" y2="237" stroke-width="1" stroke="#bbbbbb" />
<rect style="fill:#ffffff;stroke:#8e8e8e;stroke-width:1;stroke-miterlimit:4" x="0" y="227" width="30" height="9" />
<line x1="30" x2="437" y1="227" y2="227" stroke-width="1" stroke="#bbbbbb" />
<rect style="fill:#ffffff;stroke:#8e8e8e;stroke-width:1;stroke-miterlimit:4" x="0" y="218" width="30" height="9" />
<line x1="30" x2="437" y1="218" y2="218" stroke-width="1" stroke="#bbbbbb" />
<rect style="fill:#000000;stroke:#8e8e8e;stroke-width:1;stroke-miterlimit:4" x="0" y="209" width="30" height="9" />
<rect style="fill:#b3b3b9;stroke-width:0;" x="30" y="209" width="407" height="9" />
<line x1="30" x2="437" y1="209" y2="209" stroke-width="1" stroke="#bbbbbb" />
<rect style="fill:#ffffff;stroke:#8e8e8e;stroke-width:1;stroke-miterlimit:4" x="0" y="200" width="30" height="9" />
<line x1="30" x2="437" y1="200" y2="200" stroke-width="1" stroke="#bbbbbb" />
<rect style="fill:#000000;stroke:#8e8e8e;stroke-width:1;stroke-miterlimit:4" x="0" y="191" width="30" height="9" />
<rect style="fill:#b3b3b9;stroke-width:0;" x="30" y="191" width="407" height="9" />
<line x1="30" x2="437" y1="191" y2="191" stroke-width="1" stroke="#bbbbbb" />
<rect style="fill:#ffffff;stroke:#8e8e8e;stroke-width:1;stroke-miterlimit:4" x="0" y="182" width="30" height="9" />
<line x1="30" x2="437" y1="182" y2="182" stroke-width="1" stroke="#bbbbbb" />
<rect style="fill:#000000;stroke:#8e8e8e;stroke-width:1;stroke-miterlimit:4" x="0" y="173" width="30" height="9" />
<rect style="fill:#b3b3b9;stroke-width:0;" x="30" y="173" width="407" height="9" />
<line x1="30" x2="437" y1="173" y2="173" stroke-width="1" stroke="#bbbbbb" />
<rect style="fill:#ffffff;stroke:#8e8e8e;stroke-width:1;stroke-miterlimit:4" x="0" y="164" width="30" height="9" />
<line x1="30" x2="437" y1="164" y2="164" stroke-width="1" stroke="#bbbbbb" />
<line x1="30" x2="30" y1="164" y2="300" stroke-width="1" stroke="#e6e6e6" />
<line x1="81" x2="81" y1="164" y2="300" stroke-width="1" stroke="#e6e6e6" />
<line x1="132" x2="132" y1="164" y2="300" stroke-width="1" stroke="#e6e6e6" />
<line x1="183" x2="183" y1="164" y2="300" stroke-width="1" stroke="#e6e6e6" />
<line x1="234" x2="234" y1="164" y2="300" stroke-width="1" stroke="#e6e6e6" />
<line x1="284" x2="284" y1="164" y2="300" stroke-width="1" stroke="#e6e6e6" />
<line x1="335" x2="335" y1="164" y2="300" stroke-width="1" stroke="#e6e6e6" />
<line x1="386" x2="386" y1="164" y2="300" stroke-width="1" stroke="#e6e6e6" />
<rect style="fill:#55d400;stroke:#233450;stroke-width:0.5;stroke-miterlimit:4" x="30" y="200" width="51" height="9" />
<rect style="fill:#55d400;stroke:#233450;stroke-width:0.5;stroke-miterlimit:4" x="81" y="209" width="51" height="9" />
<rect style="fill:#55d400;stroke:#233450;stroke-width:0.5;stroke-miterlimit:4" x="132" y="218" width="51" height="9" />
<rect style="fill:#55d400;stroke:#233450;stroke-width:0.5;stroke-miterlimit:4" x="183" y="227" width="51" height="9" />
<rect style="fill:#55d400;stroke:#233450;stroke-width:0.5;stroke-miterlimit:4" x="234" y="237" width="51" height="9" />
<rect style="fill:#55d400;stroke:#233450;stroke-width:0.5;stroke-miterlimit:4" x="284" y="246" width="51" height="9" />
<rect style="fill:#55d400;stroke:#233450;stroke-width:0.5;stroke-miterlimit:4" x="335" y="255" width="51" height="9" />
<rect style="fill:#55d400;stroke:#233450;stroke-width:0.5;stroke-miterlimit:4" x="386" y="264" width="51" height="9" />
<text x="401" y="292" fill="black" font-family="Helvetica, Consolas, Arial, Sans" font-size="16">C1</text><rect style="fill:#cbcbd3;stroke-width:0" x="475" y="20" width="407" height="280" />
<rect style="fill:#ffffff;stroke:#8e8e8e;stroke-width:1;stroke-miterlimit:4" x="445" y="281" width="30" height="19" />
<line x1="475" x2="882" y1="281" y2="281" stroke-width="1" stroke="#bbbbbb" />
<rect style="fill:#000000;stroke:#8e8e8e;stroke-width:1;stroke-miterlimit:4" x="445" y="263" width="30" height="19" />
<rect style="fill:#b3b3b9;stroke-width:0;" x="475" y="263" width="407" height="19" />
<line x1="475" x2="882" y1="263" y2="263" stroke-width="1" stroke="#bbbbbb" />
<rect style="fill:#ffffff;stroke:#8e8e8e;stroke-width:1;stroke-miterlimit:4" x="445" y="244" width="30" height="19" />
<line x1="475" x2="882" y1="244" y2="244" stroke-width="1" stroke="#bbbbbb" />
<rect style="fill:#ffffff;stroke:#8e8e8e;stroke-width:1;stroke-miterlimit:4" x="445" y="225" width="30" height="19" />
<line x1="475" x2="882" y1="225" y2="225" stroke-width="1" stroke="#bbbbbb" />
<rect style="fill:#000000;stroke:#8e8e8e;stroke-width:1;stroke-miterlimit:4" x="445" y="207" width="30" height="19" />
<rect style="fill:#b3b3b9;stroke-width:0;" x="475" y="207" width="407" height="19" />
<line x1="475" x2="882" y1="207" y2="207" stroke-width="1" stroke="#bbbbbb" />
<rect style="fill:#ffffff;stroke:#8e8e8e;stroke-width:1;stroke-miterlimit:4" x="445" y="188" width="30" height="19" />
<line x1="475" x2="882" y1="188" y2="188" stroke-width="1" stroke="#bbbbbb" />
<rect style="fill:#000000;stroke:#8e8e8e;stroke-width:1;stroke-miterlimit:4" x="445" y="169" width="30" height="19" />
<rect style="fill:#b3b3b9;stroke-width:0;" x="475" y="169" width="407" height="19" />
<line x1="475" x2="882" y1="169" y2="169" stroke-width="1" stroke="#bbbbbb" />
<rect style="fill:#ffffff;stroke:#8e8e8e;stroke-width:1;stroke-miterlimit:4" x="445" y="151" width="30" height="19" />
<line x1="475" x2="882" y1="151" y2="151" stroke-width="1" stroke="#bbbbbb" />
<rect style="fill:#ffffff;stroke:#8e8e8e;stroke-width:1;stroke-miterlimit:4" x="445" y="132" width="30" height="19" />
<line x1="475" x2="882" y1="132" y2="132" stroke-width="1" stroke="#bbbbbb" />
<rect style="fill:#000000;stroke:#8e8e8e;stroke-width:1;stroke-miterlimit:4" x="445" y="113" width="30" height="19" />
<rect style="fill:#b3b3b9;stroke-width:0;" x="475" y="113" width="407" height="19" />
<line x1="475" x2="882" y1="113" y2="113" stroke-width="1" stroke="#bbbbbb" />
<rect style="fill:#ffffff;stroke:#8e8e8e;stroke-width:1;stroke-miterlimit:4" x="445" y="95" width="30" height="19" />
<line x1="475" x2="882" y1="95" y2="95" stroke-width="1" stroke="#bbbbbb" />
<rect style="fill:#000000;stroke:#8e8e8e;stroke-width:1;stroke-miterlimit:4" x="445" y="76" width="30" height="19" />
<rect style="fill:#b3b3b9;stroke-width:0;" x="475" y="76" width="407" height="19" />
<line x1="475" x2="882" y1="76" y2="76" stroke-width="1" stroke="#bbbbbb" />
<rect style="fill:#ffffff;stroke:#8e8e8e;stroke-width:1;stroke-miterlimit:4" x="445" y="57" width="30" height="19" />
<line x1="475" x2="882" y1="57" y2="57" stroke-width="1" stroke="#bbbbbb" />
<rect style="fill:#000000;stroke:#8e8e8e;stroke-width:1;stroke-miterlimit:4" x="445" y="39" width="30" height="19" />
<rect style="fill:#b3b3b9;stroke-width:0;" x="475" y="39" width="407" height="19" />
<line x1="475" x2="882" y1="39" y2="39" stroke-width="1" stroke="#bbbbbb" />
<rect style="fill:#ffffff;stroke:#8e8e8e;stroke-width:1;stroke-miterlimit:4" x="445" y="20" width="30" height="19" />
<line x1="475" x2="882" y1="20" y2="20" stroke-width="1" stroke="#bbbbbb" />
<line x1="475" x2="475" y1="20" y2="300" stroke-width="1" stroke="#e6e6e6" />
<line x1="500" x2="500" y1="20" y2="300" stroke-width="1" stroke="#e6e6e6" />
<line x1="526" x2="526" y1="20" y2="300" stroke-width="1" stroke="#e6e6e6" />
<line x1="551" x2="551" y1="20" y2="300" stroke-width="1" stroke="#e6e6e6" />
<line x1="577" x2="577" y1="20" y2="300" stroke-width="1" stroke="#e6e6e6" />
<line x1="602" x2="602" y1="20" y2="300" stroke-width="1" stroke="#e6e6e6" />
<line x1="628" x2="628" y1="20" y2="300" stroke-width="1" stroke="#e6e6e6" />
<line x1="653" x2="653" y1="20" y2="300" stroke-width="1" stroke="#e6e6e6" />
<line x1="678" x2="678" y1="20" y2="300" stroke-width="1" stroke="#e6e6e6" />
<line x1="704" x2="704" y1="20" y2="300" stroke-width="1" stroke="#e6e6e6" />
<line x1="729" x2="729" y1="20" y2="300" stroke-width="1" stroke="#e6e6e6" />
<line x1="755" x2="755" y1="20" y2="300" stroke-width="1" stroke="#e6e6e6" />
<line x1="780" x2="780" y1="20" y2="300" stroke-width="1" stroke="#e6e6e6" />
<line x1="806" x2="806" y1="20" y2="300" stroke-width="1" stroke="#e6e6e6" />
<line x1="831" x2="831" y1="20" y2="300" stroke-width="1" stroke="#e6e6e6" />
<line x1="857" x2="857" y1="20" y2="300" stroke-width="1" stroke="#e6e6e6" />
<rect style="fill:#55d400;stroke:#233450;stroke-width:0.5;stroke-miterlimit:4" x="475" y="225" width="25" height="19" />
<rect style="fill:#55d400;stroke:#233450;stroke-width:0.5;stroke-miterlimit:4" x="500" y="95" width="25" height="19" />
<rect style="fill:#55d400;stroke:#233450;stroke-width:0.5;stroke-miterlimit:4" x="526" y="207" width="25" height="19" />
<rect style="fill:#55d400;stroke:#233450;stroke-width:0.5;stroke-miterlimit:4" x="551" y="113" width="25" height="19" />
<rect style="fill:#55d400;stroke:#233450;stroke-width:0.5;stroke-miterlimit:4" x="577" y="188" width="25" height="19" />
<rect style="fill:#55d400;stroke:#233450;stroke-width:0.5;stroke-miterlimit:4" x="602" y="132" width="25" height="19" />
<rect style="fill:#55d400;stroke:#233450;stroke-width:0.5;stroke-miterlimit:4" x="628" y="169" width="25" height="19" />
<rect style="fill:#55d400;stroke:#233450;stroke-width:0.5;stroke-miterlimit:4" x="653" y="151" width="25" height="19" />
<rect style="fill:#55d400;stroke:#233450;stroke-width:0.5;stroke-miterlimit:4" x="678" y="151" width="25" height="19" />
<rect style="fill:#55d400;stroke:#233450;stroke-width:0.5;stroke-miterlimit:4" x="704" y="169" width="25" height="19" />
<rect style="fill:#55d400;stroke:#233450;stroke-width:0.5;stroke-miterlimit:4" x="729" y="132" width="25" height="19" />
<rect style="fill:#55d400;stroke:#233450;stroke-width:0.5;stroke-miterlimit:4" x="755" y="188" width="25" height="19" />
<rect style="fill:#55d400;stroke:#233450;stroke-width:0.5;stroke-miterlimit:4" x="780" y="113" width="25" height="19" />
<rect style="fill:#55d400;stroke:#233450;stroke-width:0.5;stroke-miterlimit:4" x="806" y="207" width="25" height="19" />
<rect style="fill:#55d400;stroke:#233450;stroke-width:0.5;stroke-miterlimit:4" x="831" y="95" width="25" height="19" />
<rect style="fill:#55d400;stroke:#233450;stroke-width:0.5;stroke-miterlimit:4" x="857" y="225" width="25" height="19" />
</svg>