<svg version="1.1" baseProfile="full" width="882" height="300" xmlns="http://www.w3.org/2000/svg">
<text x="0" y="16" fill="black" font-family="Helvetica, Consolas, Arial, Sans" font-size="16">Source clips</text><text x="445" y="16" fill="black" font-family="Helvetica, Consolas, Arial, Sans" font-size="16">Result</text><rect style="fill:#cbcbd3;stroke-width:0" x="30" y="20" width="407" height="280" />
<rect style="fill:#ffffff;stroke:#8e8e8e;stroke-width:1;stroke-miterlimit:4" x="0" y="281" width="30" height="19" />
<line x1="30" x2="437" y1="281" y2="281" stroke-width="1" stroke="#bbbbbb" />
<rect style="fill:#000000;stroke:#8e8e8e;stroke-width:1;stroke-miterlimit:4" x="0" y="263" width="30" height="19" />
<rect style="fill:#b3b3b9;stroke-width:0;" x="30" y="263" width="407" height="19" />
<line x1="30" x2="437" y1="263" y2="263" stroke-width="1" stroke="#bbbbbb" />
<rect style="fill:#ffffff;stroke:#8e8e8e;stroke-width:1;stroke-miterlimit:4" x="0" y="244" width="30" height="19" />
<line x1="30" x2="437" y1="244" y2="244" stroke-width="1" stroke="#bbbbbb" />
<rect style="fill:#ffffff;stroke:#8e8e8e;stroke-width:1;stroke-miterlimit:4" x="0" y="225" width="30" height="19" />
<line x1="30" x2="437" y1="225" y2="225" stroke-width="1" stroke="#bbbbbb" />
<rect style="fill:#000000;stroke:#8e8e8e;stroke-width:1;stroke-miterlimit:4" x="0" y="207" width="30" height="19" />
<rect style="fill:#b3b3b9;stroke-width:0;" x="30" y="207" width="407" height="19" />
<line x1="30" x2="437" y1="207" y2="207" stroke-width="1" stroke="#bbbbbb" />
<rect style="fill:#ffffff;stroke:#8e8e8e;stroke-width:1;stroke-miterlimit:4" x="0" y="188" width="30" height="19" />
<line x1="30" x2="437" y1="188" y2="188" stroke-width="1" stroke="#bbbbbb" />
<rect style="fill:#000000;stroke:#8e8e8e;stroke-width:1;stroke-miterlimit:4" x="0" y="169" width="30" height="19" />
<rect style="fill:#b3b3b9;stroke-width:0;" x="30" y="169" width="407" height="19" />
<line x1="30" x2="437" y1="169" y2="169" stroke-width="1" stroke="#bbbbbb" />
<rect style="fill:#ffffff;stroke:#8e8e8e;stroke-width:1;stroke-miterlimit:4" x="0" y="151" width="30" height="19" />
<line x1="30" x2="437" y1="151" y2="151" stroke-width="1" stroke="#bbbbbb" />
<rect style="fill:#ffffff;stroke:#8e8e8e;stroke-width:1;stroke-miterlimit:4" x="0" y="132" width="30" height="19" />
<line x1="30" x2="437" y1="132" y2="132" stroke-width="1" stroke="#bbbbbb" />
<rect style="fill:#000000;stroke:#8e8e8e;stroke-width:1;stroke-miterlimit:4" x="0" y="113" width="30" height="19" />
<rect style="fill:#b3b3b9;stroke-width:0;" x="30" y="113" width="407" height="19" />
<line x1="30" x2="437" y1="113" y2="113" stroke-width="1" stroke="#bbbbbb" />
<rect style="fill:#ffffff;stroke:#8e8e8e;stroke-width:1;stroke-miterlimit:4" x="0" y="95" width="30" height="19" />
<line x1="30" x2="437" y1="95" y2="95" stroke-width="1" stroke="#bbbbbb" />
<rect style="fill:#000000;stroke:#8e8e8e;stroke-width:1;stroke-miterlimit:4" x="0" y="76" width="30" height="19" />
<rect style="fill:#b3b3b9;stroke-width:0;" x="30" y="76" width="407" height="19" />
<line x1="30" x2="437" y1="76" y2="76" stroke-width="1" stroke="#bbbbbb" />
<rect style="fill:#ffffff;stroke:#8e8e8e;stroke-width:1;stroke-miterlimit:4" x="0" y="57" width="30" height="19" />
<line x1="30" x2="437" y1="57" y2="57" stroke-width="1" stroke="#bbbbbb" />
<rect style="fill:#000000;stroke:#8e8e8e;stroke-width:1;stroke-miterlimit:4" x="0" y="39" width="30" height="19" />
<rect style="fill:#b3b3b9;stroke-width:0;" x="30" y="39" width="407" height="19" />
<line x1="30" x2="437" y1="39" y2="39" stroke-width="1" stroke="#bbbbbb" />
<rect style="fill:#ffffff;stroke:#8e8e8e;stroke-width:1;stroke-miterlimit:4" x="0" y="20" width="30" height="19" />
<line x1="30" x2="437" y1="20" y2="20" stroke-width="1" stroke="#bbbbbb" />
<line x1="30" x2="30" y1="20" y2="300" stroke-width="1" stroke="#e6e6e6" />
<line x1="55" x2="55" y1="20" y2="300" stroke-width="1" stroke="#e6e6e6" />
<line x1="81" x2="81" y1="20" y2="300" stroke-width="1" stroke="#e6e6e6" />
<line x1="106" x2="106" y1="20" y2="300" stroke-width="1" stroke="#e6e6e6" />
<line x1="132" x2="132" y1="20" y2="300" stroke-width="1" stroke="#e6e6e6" />
<line x1="157" x2="157" y1="20" y2="300" stroke-width="1" stroke="#e6e6e6" />
<line x1="183" x2="183" y1="20" y2="300" stroke-width="1" stroke="#e6e6e6" />
<line x1="208" x2="208" y1="20" y2="300" stroke-width="1" stroke="#e6e6e6" />
<line x1="234" x2="234" y1="20" y2="300" stroke-width="1" stroke="#e6e6e6" />
<line x1="259" x2="259" y1="20" y2="300" stroke-width="1" stroke="#e6e6e6" />
<line x1="284" x2="284" y1="20" y2="300" stroke-width="1" stroke="#e6e6e6" />
<line x1="310" x2="310" y1="20" y2="300" stroke-width="1" stroke="#e6e6e6" />
<line x1="335" x2="335" y1="20" y2="300" stroke-width="1" stroke="#e6e6e6" />
<line x1="361" x2="361" y1="20" y2="300" stroke-width="1" stroke="#e6e6e6" />
<line x1="386" x2="386" y1="20" y2="300" stroke-width="1" stroke="#e6e6e6" />
<line x1="412" x2="412" y1="20" y2="300" stroke-width="1" stroke="#e6e6e6" />
<rect style="fill:#55d400;stroke:#233450;stroke-width:0.5;stroke-miterlimit:4" x="30" y="169" width="25" height="19" />
<rect style="fill:#55d400;stroke:#233450;stroke-width:0.5;stroke-miterlimit:4" x="55" y="225" width="25" height="19" />
<rect style="fill:#55d400;stroke:#233450;stroke-width:0.5;stroke-miterlimit:4" x="81" y="169" width="25" height="19" />
<rect style="fill:#55d400;stroke:#233450;stroke-width:0.5;stroke-miterlimit:4" x="106" y="95" width="25" height="19" />
<rect style="fill:#55d400;stroke:#233450;stroke-width:0.5;stroke-miterlimit:4" x="132" y="207" width="51" height="19" />
<rect style="fill:#55d400;stroke:#233450;stroke-width:0.5;stroke-miterlimit:4" x="183" y="151" width="25" height="19" />
<rect style="fill:#55d400;stroke:#233450;stroke-width:0.5;stroke-miterlimit:4" x="208" y="225" width="25" height="19" />
<rect style="fill:#55d400;stroke:#233450;stroke-width:0.5;stroke-miterlimit:4" x="234" y="151" width="25" height="19" />
<rect style="fill:#55d400;stroke:#233450;stroke-width:0.5;stroke-miterlimit:4" x="259" y="95" width="25" height="19" />
<rect style="fill:#55d400;stroke:#233450;stroke-width:0.5;stroke-miterlimit:4" x="284" y="225" width="25" height="19" />
<rect style="fill:#55d400;stroke:#233450;stroke-width:0.5;stroke-miterlimit:4" x="335" y="207" width="51" height="19" />
<rect style="fill:#55d400;stroke:#233450;stroke-width:0.5;stroke-miterlimit:4" x="386" y="132" width="25" height="19" />
<text x="401" y="284" fill="black" font-family="Helvetica, Consolas, Arial, Sans" font-size="16">A4</text><rect style="fill:#cbcbd3;stroke-width:0" x="475" y="20" width="407" height="280" />
<rect style="fill:#ffffff;stroke:#8e8e8e;stroke-width:1;stroke-miterlimit:4" x="445" y="281" width="30" height="19" />
<line x1="475" x2="882" y1="281" y2="281" stroke-width="1" stroke="#bbbbbb" />
<rect style="fill:#000000;stroke:#8e8e8e;stroke-width:1;stroke-miterlimit:4" x="445" y="263" width="30" height="19" />
<rect style="fill:#b3b3b9;stroke-width:0;" x="475" y="263" width="407" height="19" />
<line x1="475" x2="882" y1="263" y2="263" stroke-width="1" stroke="#bbbbbb" />
<rect style="fill:#ffffff;stroke:#8e8e8e;stroke-width:1;stroke-miterlimit:4" x="445" y="244" width="30" height="19" />
<line x1="475" x2="882" y1="244" y2="244" stroke-width="1" stroke="#bbbbbb" />
<rect style="fill:#ffffff;stroke:#8e8e8e;stroke-width:1;stroke-miterlimit:4" x="445" y="225" width="30" height="19" />
<line x1="475" x2="882" y1="225" y2="225" stroke-width="1" stroke="#bbbbbb" />
<rect style="fill:#000000;stroke:#8e8e8e;stroke-width:1;stroke-miterlimit:4" x="445" y="207" width="30" height="19" />
<rect style="fill:#b3b3b9;stroke-width:0;" x="475" y="207" width="407" height="19" />
<line x1="475" x2="882" y1="207" y2="207" stroke-width="1" stroke="#bbbbbb" />
<rect style="fill:#ffffff;stroke:#8e8e8e;stroke-width:1;stroke-miterlimit:4" x="445" y="188" width="30" height="19" />
<line x1="475" x2="882" y1="188" y2="188" stroke-width="1" stroke="#bbbbbb" />
<rect style="fill:#000000;stroke:#8e8e8e;stroke-width:1;stroke-miterlimit:4" x="445" y="169" width="30" height="19" />
<rect style="fill:#b3b3b9;stroke-width:0;" x="475" y="169" width="407" height="19" />
<line x1="475" x2="882" y1="169" y2="169" stroke-width="1" stroke="#bbbbbb" />
<rect style="fill:#ffffff;stroke:#8e8e8e;stroke-width:1;stroke-miterlimit:4" x="445" y="151" width="30" height="19" />
<line x1="475" x2="882" y1="151" y2="151" stroke-width="1" stroke="#bbbbbb" />
<rect style="fill:#ffffff;stroke:#8e8e8e;stroke-width:1;stroke-miterlimit:4" x="445" y="132" width="30" height="19" />
<line x1="475" x2="882" y1="132" y2="132" stroke-width="1" stroke="#bbbbbb" />
<rect style="fill:#000000;stroke:#8e8e8e;stroke-width:1;stroke-miterlimit:4" x="445" y="113" width="30" height="19" />
<rect style="fill:#b3b3b9;stroke-width:0;" x="475" y="113" width="407" height="19" />
<line x1="475" x2="882" y1="113" y2="113" stroke-width="1" stroke="#bbbbbb" />
<rect style="fill:#ffffff;stroke:#8e8e8e;stroke-width:1;stroke-miterlimit:4" x="445" y="95" width="30" height="19" />
<line x1="475" x2="882" y1="95" y2="95" stroke-width="1" stroke="#bbbbbb" />
<rect style="fill:#000000;stroke:#8e8e8e;stroke-width:1;stroke-miterlimit:4" x="445" y="76" width="30" height="19" />
<rect style="fill:#b3b3b9;stroke-width:0;" x="475" y="76" width="407" height="19" />
<line x1="475" x2="882" y1="76" y2="76" stroke-width="1" stroke="#bbbbbb" />
<rect style="fill:#ffffff;stroke:#8e8e8e;stroke-width:1;stroke-miterlimit:4" x="445" y="57" width="30" height="19" />
<line x1="475" x2="882" y1="57" y2="57" stroke-width="1" stroke="#bbbbbb" />
<rect style="fill:#000000;stroke:#8e8e8e;stroke-width:1;stroke-miterlimit:4" x="445" y="39" width="30" height="19" />
<rect style="fill:#b3b3b9;stroke-width:0;" x="475" y="39" width="407" height="19" />
<line x1="475" x2="882" y1="39" y2="39" stroke-width="1" stroke="#bbbbbb" />
<rect style="fill:#ffffff;stroke:#8e8e8e;stroke-width:1;stroke-miterlimit:4" x="445" y="20" width="30" height="19" />
<line x1="475" x2="882" y1="20" y2="20" stroke-width="1" stroke="#bbbbbb" />
<line x1="475" x2="475" y1="20" y2="300" stroke-width="1" stroke="#e6e6e6" />
<line x1="500" x2="500" y1="20" y2="300" stroke-width="1" stroke="#e6e6e6" />
<line x1="526" x2="526" y1="20" y2="300" stroke-width="1" stroke="#e6e6e6" />
<line x1="551" x2="551" y1="20" y2="300" stroke-width="1" stroke="#e6e6e6" />
<line x1="577" x2="577" y1="20" y2="300" stroke-width="1" stroke="#e6e6e6" />
<line x1="602" x2="602" y1="20" y2="300" stroke-width="1" stroke="#e6e6e6" />
<line x1="628" x2="628" y1="20" y2="300" stroke-width="1" stroke="#e6e6e6" />
<line x1="653" x2="653" y1="20" y2="300" stroke-width="1" stroke="#e6e6e6" />
<line x1="678" x2="678" y1="20" y2="300" stroke-width="1" stroke="#e6e6e6" />
<line x1="704" x2="704" y1="20" y2="300" stroke-width="1" stroke="#e6e6e6" />
<line x1="729" x2="729" y1="20" y2="300" stroke-width="1" stroke="#e6e6e6" />
<line x1="755" x2="755" y1="20" y2="300" stroke-width="1" stroke="#e6e6e6" />
<line x1="780" x2="780" y1="20" y2="300" stroke-width="1" stroke="#e6e6e6" />
<line x1="806" x2="806" y1="20" y2="300" stroke-width="1" stroke="#e6e6e6" />
<line x1="831" x2="831" y1="20" y2="300" stroke-width="1" stroke="#e6e6e6" />
<line x1="857" x2="857" y1="20" y2="300" stroke-width="1" stroke="#e6e6e6" />
<rect style="fill:#55d400;stroke:#233450;stroke-width:0.5;stroke-miterlimit:4" x="475" y="169" width="25" height="19" />
<rect style="fill:#55d400;stroke:#233450;stroke-width:0.5;stroke-miterlimit:4" x="500" y="225" width="10" height="19" />
<rect style="fill:#55d400;stroke:#233450;stroke-width:0.5;stroke-miterlimit:4" x="510" y="225" width="16" height="19" />
<rect style="fill:#55d400;stroke:#233450;stroke-width:0.5;stroke-miterlimit:4" x="526" y="169" width="5" height="19" />
<rect style="fill:#55d400;stroke:#233450;stroke-width:0.5;stroke-miterlimit:4" x="531" y="169" width="9" height="19" />
<rect style="fill:#55d400;stroke:#233450;stroke-width:0.5;stroke-miterlimit:4" x="541" y="169" width="11" height="19" />
<rect style="fill:#55d400;stroke:#233450;stroke-width:0.5;stroke-miterlimit:4" x="551" y="95" width="2" height="19" />
<rect style="fill:#55d400;stroke:#233450;stroke-width:0.5;stroke-miterlimit:4" x="553" y="95" width="3" height="19" />
<rect style="fill:#55d400;stroke:#233450;stroke-width:0.5;stroke-miterlimit:4" x="557" y="95" width="4" height="19" />
<rect style="fill:#55d400;stroke:#233450;stroke-width:0.5;stroke-miterlimit:4" x="561" y="95" width="5" height="19" />
<rect style="fill:#55d400;stroke:#233450;stroke-width:0.5;stroke-miterlimit:4" x="566" y="95" width="5" height="19" />
<rect style="fill:#55d400;stroke:#233450;stroke-width:0.5;stroke-miterlimit:4" x="571" y="95" width="6" height="19" />
<rect style="fill:#55d400;stroke:#233450;stroke-width:0.5;stroke-miterlimit:4" x="577" y="207" width="51" height="19" />
<rect style="fill:#55d400;stroke:#233450;stroke-width:0.5;stroke-miterlimit:4" x="628" y="151" width="10" height="19" />
<rect style="fill:#55d400;stroke:#233450;stroke-width:0.5;stroke-miterlimit:4" x="637" y="151" width="16" height="19" />
<rect style="fill:#55d400;stroke:#233450;stroke-width:0.5;stroke-miterlimit:4" x="653" y="225" width="2" height="19" />
<rect style="fill:#55d400;stroke:#233450;stroke-width:0.5;stroke-miterlimit:4" x="656" y="225" width="5" height="19" />
<rect style="fill:#55d400;stroke:#233450;stroke-width:0.5;stroke-miterlimit:4" x="660" y="225" width="6" height="19" />
<rect style="fill:#55d400;stroke:#233450;stroke-width:0.5;stroke-miterlimit:4" x="666" y="225" width="6" height="19" />
<rect style="fill:#55d400;stroke:#233450;stroke-width:0.5;stroke-miterlimit:4" x="672" y="225" width="7" height="19" />
<rect style="fill:#55d400;stroke:#233450;stroke-width:0.5;stroke-miterlimit:4" x="678" y="151" width="25" height="19" />
<rect style="fill:#55d400;stroke:#233450;stroke-width:0.5;stroke-miterlimit:4" x="704" y="95" width="10" height="19" />
<rect style="fill:#55d400;stroke:#233450;stroke-width:0.5;stroke-miterlimit:4" x="714" y="95" width="16" height="19" />
<rect style="fill:#55d400;stroke:#233450;stroke-width:0.5;stroke-miterlimit:4" x="729" y="225" width="5" height="19" />
<rect style="fill:#55d400;stroke:#233450;stroke-width:0.5;stroke-miterlimit:4" x="735" y="225" width="9" height="19" />
<rect style="fill:#55d400;stroke:#233450;stroke-width:0.5;stroke-miterlimit:4" x="744" y="225" width="11" height="19" />
<rect style="fill:#55d400;stroke:#233450;stroke-width:0.5;stroke-miterlimit:4" x="780" y="207" width="4" height="19" />
<rect style="fill:#55d400;stroke:#233450;stroke-width:0.5;stroke-miterlimit:4" x="784" y="207" width="7" height="19" />
<rect style="fill:#55d400;stroke:#233450;stroke-width:0.5;stroke-miterlimit:4" x="791" y="207" width="9" height="19" />
<rect style="fill:#55d400;stroke:#233450;stroke-width:0.5;stroke-miterlimit:4" x="800" y="207" width="10" height="19" />
<rect style="fill:#55d400;stroke:#233450;stroke-width:0.5;stroke-miterlimit:4" x="810" y="207" width="10" height="19" />
<rect style="fill:#55d400;stroke:#233450;stroke-width:0.5;stroke-miterlimit:4" x="820" y="207" width="11" height="19" />
<rect style="fill:#55d400;stroke:#233450;stroke-width:0.5;stroke-miterlimit:4" x="831" y="132" width="25" height="19" />
</svg>